<svg width="164" height="45" viewBox="0 0 164 45" fill="none" xmlns="http://www.w3.org/2000/svg">
<path d="M48.044 40.0878C48.0436 39.7495 48.1657 39.4224 48.388 39.1661C48.616 38.892 48.86 38.6139 49.1241 38.3319C49.3892 38.0453 49.6364 37.7428 49.8641 37.4261C50.0896 37.1194 50.2102 36.7491 50.2082 36.3694V22.2584C50.2151 21.873 50.0942 21.4961 49.8641 21.1857C49.6332 20.8778 49.3862 20.5821 49.1241 20.2998C48.86 20.0138 48.616 19.7317 48.388 19.4457C48.1711 19.1941 48.0494 18.8751 48.044 18.5439C48.0396 18.3283 48.0971 18.116 48.2097 17.9317C48.3224 17.7474 48.4855 17.5987 48.68 17.503C49.1283 17.2554 49.615 17.0835 50.1202 16.9945C50.6477 16.8925 51.183 16.8353 51.7203 16.8237H52.7324C53.2631 16.8071 53.7923 16.8892 54.2926 17.066C54.6509 17.1971 54.9758 17.4046 55.2447 17.6739C55.4787 17.9258 55.6487 18.2295 55.7407 18.5598C55.8316 18.8883 55.8893 19.225 55.9127 19.5649C56.463 18.6065 57.2796 17.8258 58.265 17.3163C59.176 16.8668 60.18 16.6342 61.1973 16.637C62.1026 16.6284 62.9991 16.8141 63.8255 17.1813C64.6527 17.5562 65.3812 18.1165 65.9537 18.818C66.6012 19.6266 67.0849 20.552 67.3779 21.5433C67.7392 22.7834 67.9118 24.0702 67.8899 25.361C67.906 26.6907 67.7336 28.016 67.3779 29.298C67.0822 30.3786 66.5901 31.3965 65.9257 32.3013C65.347 33.0884 64.5961 33.7349 63.7295 34.1923C62.8841 34.6356 61.9412 34.8635 60.9852 34.8558C60.0236 34.8578 59.0755 34.6302 58.221 34.1923C57.2704 33.6829 56.4799 32.9227 55.9367 31.9954V36.3892C55.9347 36.7689 56.0553 37.1393 56.2808 37.446C56.5085 37.7627 56.7557 38.0651 57.0208 38.3517C57.2809 38.6338 57.5289 38.9119 57.7569 39.186C57.9792 39.4423 58.1013 39.7694 58.1009 40.1077C58.105 40.3226 58.0473 40.5343 57.9347 40.7179C57.8221 40.9016 57.6591 41.0495 57.4649 41.1445C57.0112 41.3937 56.5192 41.5668 56.0087 41.657C55.465 41.7588 54.9138 41.816 54.3606 41.8278C53.8125 41.8278 53.4005 41.8278 53.1245 41.8278C52.8484 41.8278 52.4324 41.8278 51.8723 41.8278C51.3019 41.8158 50.7334 41.7587 50.1722 41.657C49.6493 41.5706 49.1449 41.3973 48.68 41.1445C48.4826 41.0481 48.3176 40.897 48.2047 40.7095C48.0919 40.522 48.036 40.3061 48.044 40.0878ZM59.1291 30.9864C60.0011 30.9864 60.6852 30.5096 61.1893 29.5522C62.1973 27.1124 62.1973 24.3764 61.1893 21.9366C60.6852 20.9712 59.9891 20.4865 59.1291 20.4865C58.7147 20.5024 58.3098 20.6141 57.9466 20.8127C57.5834 21.0114 57.2719 21.2914 57.0368 21.6307C56.374 22.5156 55.9911 23.5762 55.9367 24.6777V26.827C55.9936 27.9183 56.3766 28.968 57.0368 29.8422C57.2719 30.1815 57.5834 30.4615 57.9466 30.6602C58.3098 30.8588 58.7147 30.9705 59.1291 30.9864Z" fill="white"/>
<path d="M86.3151 29.1788C86.1378 29.9818 85.8239 30.7489 85.387 31.4472C84.9566 32.1352 84.4051 32.7408 83.7589 33.2349C83.0868 33.7529 82.3324 34.1557 81.5266 34.4267C80.6355 34.7202 79.7012 34.8638 78.7624 34.8518C77.6118 34.8637 76.4697 34.656 75.398 34.24C74.3901 33.8435 73.478 33.2396 72.7218 32.4682C71.9501 31.6687 71.3487 30.7229 70.9536 29.6873C70.5164 28.5281 70.302 27.2979 70.3215 26.0602C70.3012 24.7325 70.5389 23.4133 71.0216 22.1749C71.4572 21.0597 72.1174 20.0445 72.9618 19.1914C73.7923 18.3682 74.7851 17.7244 75.8781 17.3004C77.0245 16.8528 78.2467 16.6276 79.4784 16.637C80.2105 16.6406 80.9406 16.7138 81.6587 16.8555C82.4034 16.998 83.1179 17.2668 83.7709 17.65C84.4114 18.0227 84.9585 18.5348 85.371 19.1477C85.8208 19.8602 86.0426 20.6912 86.0071 21.5314C86.0263 22.5169 85.7476 23.4856 85.207 24.3122C84.6631 25.1243 83.9268 25.7913 83.0628 26.2549C82.1049 26.7484 81.0579 27.0482 79.9825 27.1368C78.7724 27.2578 77.5502 27.1472 76.3821 26.8111C76.6102 28.13 77.0422 29.0834 77.6703 29.6754C77.9859 29.9752 78.3587 30.2095 78.7668 30.3643C79.1748 30.5192 79.6099 30.5916 80.0465 30.5772C80.8795 30.5955 81.6948 30.3368 82.3627 29.8422C83.0002 29.3702 83.5033 28.7419 83.8229 28.0188C83.9722 27.6183 84.2417 27.273 84.5949 27.0296C84.8829 26.8728 85.2182 26.8249 85.539 26.8945C85.7107 26.9301 85.8719 27.0041 86.0105 27.1108C86.1492 27.2175 86.2615 27.3541 86.3391 27.5103C86.4831 27.8281 86.4751 28.3842 86.3151 29.1788ZM76.2581 25.0194C77.0454 25.1791 77.8625 25.1087 78.6104 24.8168C79.1115 24.5909 79.5436 24.2373 79.8625 23.7918C80.1212 23.4204 80.2909 22.995 80.3585 22.5484C80.4047 22.2496 80.4341 21.9486 80.4465 21.6466C80.4869 20.9913 80.331 20.3389 79.9985 19.7715C79.8918 19.5821 79.7379 19.4231 79.5516 19.3097C79.3653 19.1963 79.1527 19.1323 78.9344 19.1239C78.5968 19.1394 78.2725 19.2588 78.0063 19.4656C77.645 19.7418 77.3522 20.0965 77.1502 20.5024C76.8632 21.0652 76.6495 21.6619 76.5141 22.2782C76.3294 23.1223 76.2435 23.9848 76.2581 24.8486V25.0194Z" fill="white"/>
<path d="M89.4692 16.8054C89.9953 16.8132 90.5109 16.6592 90.9453 16.3644C91.3889 16.062 91.7829 15.6935 92.1134 15.2719C92.4551 14.8436 92.7426 14.3753 92.9695 13.8775C93.1771 13.436 93.3497 12.9791 93.4856 12.5109C93.5912 11.9223 93.8695 11.3777 94.2856 10.9456C94.5742 10.6928 94.9449 10.5518 95.3297 10.5484C95.5017 10.5402 95.6737 10.5658 95.8357 10.6237C95.9977 10.6817 96.1466 10.7708 96.2738 10.886C96.3958 11.006 96.4912 11.15 96.5539 11.3087C96.6166 11.4674 96.6452 11.6374 96.6379 11.8077V16.8054H98.9021C99.6102 16.8054 99.9662 17.2265 99.9662 18.0687C99.9662 18.9109 99.6102 19.328 98.9021 19.328H96.6459V29.657C96.6218 30.1688 96.7277 30.6784 96.9539 31.1388C97.0311 31.309 97.1566 31.453 97.3151 31.5532C97.4736 31.6534 97.6581 31.7055 97.846 31.7029C98.0312 31.6973 98.2128 31.6512 98.378 31.5679C98.6 31.4496 98.7843 31.2721 98.9101 31.0554C99.0666 30.7626 99.3213 30.5335 99.6302 30.4079C99.7718 30.3514 99.9263 30.3341 100.077 30.3579C100.228 30.3817 100.369 30.4456 100.486 30.5429C100.598 30.6184 100.692 30.7172 100.761 30.8325C100.83 30.9478 100.873 31.0768 100.886 31.2103C100.897 31.6332 100.777 32.0491 100.542 32.4021C100.122 33.1616 99.4826 33.7787 98.7061 34.174C97.8538 34.6162 96.9033 34.8388 95.9418 34.8215C95.2733 34.8509 94.6056 34.7469 93.9782 34.5156C93.3509 34.2843 92.7766 33.9304 92.2894 33.4748C91.3613 32.5809 90.8973 31.3335 90.8973 29.7444V19.324H89.3531C89.2085 19.3301 89.0644 19.3044 88.9309 19.2488C88.7975 19.1931 88.678 19.109 88.5811 19.0023C88.3908 18.7261 88.2891 18.3993 88.2891 18.0647C88.2891 17.7301 88.3908 17.4033 88.5811 17.1271C88.6778 17.0199 88.7971 16.9352 88.9306 16.8789C89.064 16.8226 89.2083 16.7961 89.3531 16.8014L89.4692 16.8054Z" fill="white"/>
<path d="M110.304 19.4961C110.847 18.5689 111.637 17.8086 112.588 17.2992C113.443 16.8613 114.391 16.6338 115.352 16.6358C116.308 16.628 117.251 16.856 118.097 17.2992C118.963 17.7566 119.714 18.4032 120.293 19.1902C120.952 20.0897 121.442 21.1006 121.737 22.1737C122.092 23.4557 122.265 24.781 122.249 26.1107C122.271 27.4015 122.098 28.6883 121.737 29.9284C121.444 30.9197 120.96 31.8451 120.313 32.6537C119.74 33.3562 119.01 33.9166 118.181 34.2904C117.356 34.6575 116.46 34.8432 115.556 34.8347C114.539 34.8375 113.535 34.6049 112.624 34.1554C111.638 33.6455 110.821 32.8633 110.272 31.9028C110.249 32.2441 110.191 32.5821 110.1 32.9119C110.008 33.2422 109.838 33.5459 109.604 33.7978C109.334 34.0761 109.004 34.2907 108.64 34.4255C108.139 34.6008 107.61 34.6816 107.08 34.6639H106.067C105.53 34.6522 104.995 34.5951 104.467 34.493C103.964 34.4038 103.479 34.2376 103.027 34.0004C102.832 33.9098 102.668 33.7645 102.555 33.5824C102.442 33.4003 102.385 33.1893 102.391 32.9755C102.391 32.6384 102.513 32.3125 102.735 32.0578C102.963 31.7837 103.207 31.5056 103.471 31.2235C103.735 30.9359 103.982 30.6335 104.211 30.3177C104.437 30.0111 104.557 29.6407 104.555 29.261V15.0984C104.556 14.7188 104.436 14.3488 104.211 14.0416C103.982 13.7271 103.735 13.426 103.471 13.1398C103.207 12.8578 102.963 12.5757 102.735 12.3055C102.513 12.0492 102.391 11.7221 102.391 11.3839C102.386 11.1707 102.443 10.9606 102.556 10.7793C102.669 10.5979 102.833 10.4532 103.027 10.3629C103.479 10.126 103.965 9.95862 104.467 9.86632C104.995 9.76628 105.53 9.70915 106.067 9.69549H107.08C107.693 9.66739 108.305 9.78449 108.864 10.0371C109.264 10.233 109.603 10.5338 109.844 10.9072C110.061 11.2527 110.198 11.6424 110.244 12.0473C110.29 12.443 110.312 12.8409 110.312 13.2391L110.304 19.4961ZM113.504 30.9851C114.376 30.9851 115.06 30.5005 115.564 29.5351C116.572 27.0938 116.572 24.3568 115.564 21.9155C115.06 20.962 114.364 20.4853 113.504 20.4853C113.09 20.5012 112.685 20.6129 112.322 20.8115C111.959 21.0101 111.647 21.2902 111.412 21.6295C110.749 22.5144 110.366 23.575 110.312 24.6765V26.8257C110.369 27.9171 110.752 28.9668 111.412 29.841C111.646 30.1792 111.956 30.4586 112.318 30.6572C112.68 30.8558 113.083 30.9681 113.496 30.9851H113.504Z" fill="white"/>
<path d="M140.686 29.1788C140.509 29.9818 140.195 30.7489 139.758 31.4472C139.327 32.1346 138.775 32.74 138.13 33.2349C137.458 33.7529 136.703 34.1557 135.898 34.4267C135.006 34.7202 134.072 34.8638 133.133 34.8518C131.983 34.8637 130.841 34.656 129.769 34.24C128.761 33.8435 127.849 33.2396 127.093 32.4682C126.321 31.6687 125.72 30.7229 125.325 29.6873C124.886 28.5284 124.67 27.2981 124.689 26.0602C124.67 24.7322 124.909 23.413 125.393 22.1749C125.828 21.0597 126.488 20.0445 127.333 19.1914C128.163 18.3682 129.156 17.7244 130.249 17.3004C131.396 16.8528 132.618 16.6276 133.849 16.637C134.582 16.6406 135.312 16.7138 136.03 16.8555C136.774 16.998 137.489 17.2668 138.142 17.65C138.782 18.0227 139.33 18.5348 139.742 19.1477C140.192 19.8602 140.414 20.6912 140.378 21.5314C140.397 22.5169 140.119 23.4856 139.578 24.3122C139.034 25.1243 138.298 25.7913 137.434 26.2549C136.481 26.7612 135.437 27.0745 134.362 27.1766C133.151 27.2975 131.929 27.1869 130.761 26.8508C130.988 28.175 131.417 29.1298 132.049 29.7151C132.363 30.0092 132.733 30.2389 133.137 30.3909C133.54 30.5429 133.97 30.6143 134.402 30.601C135.235 30.6194 136.05 30.3607 136.718 29.8661C137.355 29.395 137.857 28.7663 138.174 28.0426C138.326 27.6425 138.596 27.2976 138.95 27.0534C139.237 26.8969 139.571 26.849 139.89 26.9183C140.062 26.9537 140.223 27.0276 140.362 27.1343C140.501 27.241 140.613 27.3777 140.69 27.5341C140.848 27.836 140.846 28.3842 140.686 29.1788ZM130.629 25.0194C131.416 25.1791 132.234 25.1087 132.981 24.8168C133.483 24.5909 133.915 24.2373 134.234 23.7918C134.492 23.4204 134.662 22.995 134.73 22.5484C134.776 22.2496 134.805 21.9486 134.818 21.6466C134.858 20.9913 134.702 20.3389 134.37 19.7715C134.263 19.5821 134.109 19.4231 133.923 19.3097C133.736 19.1963 133.524 19.1323 133.305 19.1239C132.967 19.1375 132.643 19.2571 132.377 19.4656C132.016 19.7418 131.723 20.0965 131.521 20.5024C131.234 21.0652 131.021 21.6619 130.885 22.2782C130.7 23.1223 130.615 23.9848 130.629 24.8486V25.0194Z" fill="white"/>
<path d="M155.442 34.6815C155.025 35.8527 154.466 36.9693 153.778 38.0067C153.213 38.8578 152.526 39.622 151.738 40.2751C151.064 40.8286 150.304 41.2712 149.489 41.5861C148.76 41.8619 147.986 42.0058 147.205 42.0112C146.333 42.0347 145.474 41.8041 144.733 41.3477C144.389 41.1209 144.094 40.8285 143.864 40.4875C143.635 40.1466 143.476 39.7638 143.397 39.3614C143.181 38.5322 143.297 37.6523 143.721 36.9062C143.914 36.5478 144.185 36.2364 144.515 35.9946C144.844 35.7528 145.223 35.5866 145.625 35.5079C146.229 35.3993 146.852 35.4528 147.429 35.6628C147.768 35.7983 148.073 36.008 148.319 36.2762C148.566 36.5444 148.748 36.8643 148.853 37.2121C148.949 37.5024 149.113 37.7654 149.333 37.9789C149.466 38.0956 149.636 38.163 149.813 38.1696C150.213 38.1696 150.701 37.8557 151.237 37.232C151.861 36.4639 152.364 35.6068 152.73 34.6895H152.662C151.944 34.6895 151.243 34.4709 150.655 34.0631C150.066 33.6553 149.617 33.0781 149.369 32.4092L145.653 22.255C145.521 21.8528 145.298 21.486 145.001 21.1823C144.705 20.8764 144.389 20.5825 144.057 20.2964C143.725 20.0104 143.409 19.7323 143.113 19.4622C142.843 19.2287 142.632 18.9363 142.497 18.608C142.395 18.4275 142.365 18.2159 142.413 18.0146C142.46 17.8133 142.581 17.6367 142.753 17.5195C143.155 17.2486 143.613 17.0683 144.093 16.9911C144.652 16.8864 145.22 16.8292 145.789 16.8203C146.385 16.8203 146.829 16.8203 147.129 16.8203C147.429 16.8203 147.901 16.8203 148.485 16.8203C149.078 16.8325 149.669 16.8896 150.253 16.9911C150.822 17.0843 151.376 17.2499 151.902 17.4838C152.13 17.5756 152.336 17.7139 152.507 17.8898C152.677 18.0656 152.809 18.2751 152.894 18.5047C152.963 18.6496 152.997 18.809 152.991 18.9695C152.986 19.1299 152.941 19.2867 152.862 19.4264C152.702 19.7005 152.518 19.9826 152.314 20.2805C152.112 20.567 151.933 20.8685 151.778 21.1823C151.706 21.3523 151.67 21.5346 151.67 21.7186C151.67 21.9027 151.706 22.085 151.778 22.255L154.558 29.8031L157.338 22.255C157.483 21.9065 157.483 21.5149 157.338 21.1664C157.187 20.8448 157.009 20.5365 156.806 20.2448C156.604 19.9592 156.426 19.6576 156.274 19.343C156.203 19.1849 156.166 19.0137 156.166 18.8404C156.166 18.6672 156.203 18.4959 156.274 18.3379C156.417 17.9476 156.689 17.6171 157.046 17.4003C157.398 17.1828 157.787 17.032 158.194 16.9554C158.59 16.8784 158.991 16.8332 159.394 16.8203C159.794 16.8203 160.094 16.8203 160.322 16.8203C160.55 16.8203 160.826 16.8203 161.214 16.8203C161.595 16.8305 161.974 16.8758 162.347 16.9554C162.673 17.0118 162.973 17.1672 163.207 17.4003C163.311 17.531 163.376 17.6883 163.395 17.8542C163.413 18.0201 163.384 18.1877 163.311 18.3379C163.162 18.7125 162.941 19.0541 162.659 19.343C162.359 19.6489 162.039 19.9508 161.695 20.2448C161.35 20.5388 161.026 20.8486 160.718 21.1664C160.416 21.4751 160.186 21.847 160.046 22.255L155.442 34.6815Z" fill="white"/>
<path d="M11.4511 23.6719C12.5502 23.6719 13.4412 22.7817 13.4412 21.6836C13.4412 20.5855 12.5502 19.6953 11.4511 19.6953C10.352 19.6953 9.46094 20.5855 9.46094 21.6836C9.46094 22.7817 10.352 23.6719 11.4511 23.6719Z" fill="white"/>
<path d="M28.6776 19.6953C28.2843 19.6953 27.8997 19.8118 27.5725 20.03C27.2454 20.2483 26.9903 20.5585 26.8395 20.9215C26.6887 21.2844 26.649 21.6839 26.7253 22.0695C26.8017 22.455 26.9907 22.8093 27.2685 23.0876C27.5462 23.3659 27.9003 23.5557 28.286 23.633C28.6717 23.7104 29.0717 23.6718 29.4354 23.5221C29.7992 23.3725 30.1104 23.1185 30.3297 22.7922C30.549 22.466 30.6667 22.0821 30.6678 21.6891C30.6685 21.4275 30.6176 21.1684 30.5179 20.9265C30.4182 20.6847 30.2717 20.4648 30.0868 20.2796C29.902 20.0944 29.6823 19.9475 29.4405 19.8472C29.1987 19.7469 28.9395 19.6953 28.6776 19.6953Z" fill="white"/>
<path d="M33.4201 9.36045H30.2727C30.102 9.35963 29.9378 9.29485 29.8126 9.17891C29.6874 9.06297 29.6102 8.90431 29.5965 8.73431C29.3897 6.35074 28.2959 4.13126 26.5309 2.51419C24.766 0.897117 22.4583 0 20.0636 0C17.6689 0 15.3612 0.897117 13.5962 2.51419C11.8313 4.13126 10.7375 6.35074 10.5307 8.73431C10.5169 8.90431 10.4398 9.06297 10.3146 9.17891C10.1894 9.29485 10.0252 9.35963 9.8545 9.36045H6.70711C4.92872 9.36191 3.22358 10.0684 1.96607 11.3247C0.708563 12.581 0.00145591 14.2846 0 16.0613L1.67128 34.1592C2.47943 40.124 6.13535 44.595 12.5126 44.9904C14.5357 45.0878 16.5243 44.4399 18.1009 43.1696C18.6621 42.7335 19.3512 42.494 20.0621 42.488C20.773 42.4821 21.4661 42.71 22.0345 43.1367C23.6457 44.3398 25.6031 44.99 27.6146 44.9904C30.485 44.9745 33.2333 43.8283 35.263 41.8005C37.2927 39.7727 38.44 37.0269 38.4559 34.1592L40.1272 16.0613C40.1257 14.2846 39.4186 12.581 38.1611 11.3247C36.9036 10.0684 35.1985 9.36191 33.4201 9.36045ZM20.0636 4.02447C21.3557 4.02571 22.6068 4.47823 23.6002 5.30372C24.5936 6.12921 25.2669 7.27572 25.5035 8.54482C25.5212 8.64626 25.5164 8.75035 25.4894 8.84973C25.4624 8.94912 25.4139 9.04136 25.3473 9.11995C25.2807 9.19854 25.1977 9.26156 25.104 9.30454C25.0103 9.34752 24.9084 9.36942 24.8053 9.36869H15.3191C15.2162 9.3695 15.1143 9.34763 15.0207 9.30462C14.9271 9.26162 14.8442 9.19855 14.7778 9.11989C14.7114 9.04123 14.6632 8.94892 14.6365 8.84953C14.6099 8.75013 14.6055 8.6461 14.6237 8.54482C14.8603 7.27572 15.5336 6.12921 16.527 5.30372C17.5204 4.47823 18.7715 4.02571 20.0636 4.02447ZM20.5804 33.5165C20.513 33.5853 20.4327 33.6399 20.3439 33.6772C20.2552 33.7145 20.1599 33.7337 20.0636 33.7337C19.9673 33.7337 19.872 33.7145 19.7833 33.6772C19.6945 33.6399 19.6141 33.5853 19.5468 33.5165V33.4946L16.3335 30.0975C16.322 30.0833 16.3091 30.0704 16.295 30.059C16.1244 29.8914 15.9987 29.6836 15.9294 29.4548C15.8533 29.201 15.8471 28.9313 15.9114 28.6742C15.9758 28.4171 16.1083 28.1821 16.295 27.9938C16.4469 27.8416 16.6307 27.7249 16.8332 27.6523C17.0357 27.5796 17.2518 27.5528 17.466 27.5736C17.8214 27.6132 18.1519 27.7754 18.4006 28.0323L19.5798 29.2132C19.7081 29.3413 19.8822 29.4133 20.0636 29.4133C20.245 29.4133 20.419 29.3413 20.5474 29.2132L21.7266 28.0323C21.9752 27.7754 22.3058 27.6132 22.6612 27.5736C22.876 27.554 23.0924 27.5823 23.2949 27.6563C23.4974 27.7304 23.6809 27.8485 23.8322 28.0021C24.0175 28.1878 24.1496 28.4198 24.2148 28.6738C24.2801 28.9278 24.2761 29.1946 24.2033 29.4466C24.1334 29.6818 24.0047 29.8954 23.8295 30.0672L23.7937 30.1057L20.5804 33.4946V33.5165ZM34.8742 34.1592C34.745 37.4135 32.6751 41.2116 27.6201 41.4065C24.7778 41.5164 22.3973 39.3441 21.9438 36.6198C21.9258 36.5109 21.9331 36.3993 21.965 36.2936C21.9969 36.1879 22.0527 36.091 22.128 36.0102L25.8389 32.0857C26.3759 31.5405 26.7602 30.8638 26.9531 30.1235C27.1461 29.3832 27.141 28.6052 26.9384 27.8675C26.8487 27.514 26.7099 27.1747 26.5261 26.8596C26.1428 26.192 25.59 25.6373 24.9235 25.2515C24.2569 24.8658 23.5003 24.6626 22.7299 24.6626C21.9 24.6599 21.0868 24.8964 20.388 25.3437C20.2681 25.4202 20.1289 25.4609 19.9866 25.4609C19.8444 25.4609 19.7051 25.4202 19.5853 25.3437C18.6263 24.7352 17.468 24.5235 16.3554 24.7532C15.8153 24.8578 15.3013 25.0688 14.8436 25.3739C14.3028 25.7278 13.8475 26.1972 13.5105 26.7483C13.1735 27.2994 12.9632 27.9185 12.8948 28.5607C12.8264 29.2029 12.9016 29.8522 13.1151 30.4619C13.3285 31.0715 13.6748 31.6261 14.1289 32.0857L17.9772 36.153C18.0548 36.235 18.1117 36.3344 18.1433 36.4428C18.1748 36.5512 18.1801 36.6655 18.1587 36.7764C17.6336 39.4347 15.2917 41.6647 12.5126 41.4065C8.84843 41.066 5.7835 37.8364 5.25848 34.1592L3.5872 16.0613C3.58793 15.2349 3.91687 14.4425 4.50181 13.8581C5.08674 13.2737 5.87988 12.945 6.70711 12.9443H33.4201C34.2473 12.945 35.0404 13.2737 35.6254 13.8581C36.2103 14.4425 36.5393 15.2349 36.54 16.0613L34.8742 34.1592Z" fill="white"/>
</svg>
